<svg width="57" height="56" viewBox="0 0 57 56" fill="none" xmlns="http://www.w3.org/2000/svg">
<rect x="0.5" width="56" height="56" rx="28" fill="#557C55"/>
<path fill-rule="evenodd" clip-rule="evenodd" d="M27.029 19.76C25.68 20.252 24.622 21.4025 24.1995 22.847C23.449 23.232 23 23.72 23 24.25C23 24.849 23.572 25.3935 24.505 25.7965C24.4779 26.3379 24.5611 26.8792 24.7497 27.3875C24.9382 27.8958 25.2281 28.3605 25.6017 28.7533C25.9754 29.1461 26.425 29.4588 26.9232 29.6725C27.4214 29.8862 27.9579 29.9964 28.5 29.9964C29.0421 29.9964 29.5786 29.8862 30.0768 29.6725C30.575 29.4588 31.0246 29.1461 31.3983 28.7533C31.7719 28.3605 32.0618 27.8958 32.2503 27.3875C32.4389 26.8792 32.5221 26.3379 32.495 25.7965C33.428 25.3935 34 24.849 34 24.25C34 23.7195 33.551 23.232 32.8 22.847C32.3775 21.402 31.32 20.252 29.971 19.7595C29.9173 19.5426 29.7924 19.35 29.6165 19.2123C29.4405 19.0747 29.2234 18.9999 29 19H28C27.7765 18.9999 27.5594 19.0748 27.3834 19.2125C27.2074 19.3503 27.0826 19.543 27.029 19.76ZM27.5 22C27.6326 22 27.7598 21.9473 27.8536 21.8536C27.9473 21.7598 28 21.6326 28 21.5V20H29V21.5C29 21.6326 29.0527 21.7598 29.1464 21.8536C29.2402 21.9473 29.3674 22 29.5 22C29.6326 22 29.7598 21.9473 29.8536 21.8536C29.9473 21.7598 30 21.6326 30 21.5V20.861C30.7935 21.266 31.434 21.9875 31.7625 22.889C31.7611 22.8948 31.7597 22.9006 31.7585 22.9065C31.7336 22.9261 31.7074 22.944 31.68 22.96C31.537 23.045 31.301 23.138 30.974 23.223C30.3275 23.3915 29.4335 23.5 28.5 23.5C27.5665 23.5 26.6725 23.3915 26.026 23.223C25.699 23.138 25.463 23.045 25.32 22.96C25.2926 22.944 25.2664 22.9261 25.2415 22.9065L25.2405 22.902C25.2396 22.8976 25.2386 22.8933 25.2375 22.889C25.566 21.9875 26.2065 21.2655 27 20.861V21.5C27 21.6326 27.0527 21.7598 27.1464 21.8536C27.2402 21.9473 27.3674 22 27.5 22ZM24.672 23.729L24.6555 23.737C24.352 23.8925 24.1685 24.0405 24.072 24.151C24.0444 24.1805 24.0211 24.2139 24.003 24.25C24.0135 24.274 24.044 24.326 24.1275 24.407C24.284 24.5585 24.563 24.741 24.9895 24.9155C25.8375 25.2625 27.0785 25.5 28.5 25.5C29.9215 25.5 31.1625 25.2625 32.01 24.915C32.437 24.741 32.716 24.5585 32.8725 24.407C32.956 24.326 32.9865 24.274 32.997 24.25C32.9789 24.2139 32.9556 24.1805 32.928 24.151C32.8315 24.0405 32.648 23.8925 32.3445 23.737L32.328 23.729C32.2841 23.7611 32.2387 23.7912 32.192 23.819C31.9335 23.973 31.5945 24.095 31.2255 24.191C30.4805 24.385 29.5 24.5 28.5 24.5C27.5 24.5 26.5195 24.385 25.7745 24.191C25.4055 24.095 25.0665 23.973 24.808 23.8185C24.7613 23.7907 24.7159 23.7606 24.672 23.7285V23.729ZM33.002 24.264L33 24.26L33.001 24.265L33.002 24.264ZM33.002 24.235C33.0015 24.235 33.001 24.2365 33.0005 24.24C33.0009 24.2387 33.0012 24.2374 33.0015 24.236V24.2345L33.002 24.235ZM23.999 24.238L23.9985 24.235L23.9995 24.24L23.999 24.238ZM23.999 24.262V24.2595V24.261L23.9985 24.264L23.999 24.262ZM31.497 26.137C30.635 26.367 29.605 26.5 28.5 26.5C27.395 26.5 26.365 26.3665 25.503 26.137C25.5375 26.9087 25.8684 27.6373 26.4266 28.1711C26.9849 28.7049 27.7276 29.0029 28.5 29.0029C29.2724 29.0029 30.0151 28.7049 30.5734 28.1711C31.1316 27.6373 31.4625 26.9087 31.497 26.137ZM33.8425 29.297C33.8705 29.2089 33.8735 29.1147 33.8512 29.025C33.8289 28.9352 33.7822 28.8534 33.7162 28.7886C33.6502 28.7239 33.5675 28.6787 33.4773 28.6581C33.3872 28.6375 33.2931 28.6423 33.2055 28.672C32.6259 28.8691 32.1138 29.2257 31.7279 29.701C31.3421 30.1763 31.0983 30.7508 31.0246 31.3585C30.9509 31.9662 31.0503 32.5824 31.3113 33.1361C31.5723 33.6898 31.9843 34.1586 32.5 34.4885V36.5C32.5 36.6326 32.5527 36.7598 32.6464 36.8536C32.7402 36.9473 32.8674 37 33 37H35.5C35.6326 37 35.7598 36.9473 35.8536 36.8536C35.9473 36.7598 36 36.6326 36 36.5V34.489C36.5159 34.1592 36.9283 33.6904 37.1895 33.1365C37.4507 32.5827 37.5501 31.9663 37.4764 31.3584C37.4027 30.7505 37.1588 30.1758 36.7728 29.7005C36.3867 29.2251 35.8743 28.8684 35.2945 28.6715C35.2069 28.6418 35.1127 28.6369 35.0225 28.6575C34.9323 28.6781 34.8495 28.7234 34.7835 28.7882C34.7175 28.8531 34.6707 28.9349 34.6485 29.0248C34.6262 29.1146 34.6294 29.2088 34.6575 29.297C34.6618 29.3105 34.6655 29.3242 34.6685 29.338L34.947 30.638C34.969 30.7418 34.9676 30.8492 34.9428 30.9524C34.9179 31.0556 34.8704 31.1519 34.8036 31.2343C34.7368 31.3168 34.6524 31.3833 34.5567 31.4289C34.4609 31.4746 34.3561 31.4983 34.25 31.4983C34.1439 31.4983 34.0391 31.4746 33.9433 31.4289C33.8476 31.3833 33.7632 31.3168 33.6964 31.2343C33.6296 31.1519 33.5821 31.0556 33.5572 30.9524C33.5324 30.8492 33.531 30.7418 33.553 30.638L33.8315 29.338C33.8345 29.3242 33.8382 29.3105 33.8425 29.297ZM35.9245 30.4285L35.8745 30.1925C36.1176 30.4459 36.298 30.7527 36.4013 31.0883C36.5046 31.4239 36.5279 31.7791 36.4693 32.1253C36.4107 32.4715 36.272 32.7992 36.0641 33.0822C35.8562 33.3652 35.5849 33.5956 35.272 33.755C35.1869 33.7984 35.116 33.8652 35.0677 33.9476C35.0194 34.03 34.9958 34.1246 34.9995 34.22L35 34.25V36H33.5V34.246L33.5005 34.22C33.5043 34.1246 33.4807 34.0301 33.4325 33.9477C33.3843 33.8653 33.3135 33.7985 33.2285 33.755C32.9156 33.5956 32.6443 33.3652 32.4364 33.0822C32.2285 32.7992 32.0898 32.4715 32.0312 32.1253C31.9726 31.7791 31.9959 31.4239 32.0992 31.0883C32.2025 30.7527 32.3829 30.4459 32.626 30.1925L32.5755 30.4285C32.522 30.6782 32.525 30.9367 32.5843 31.185C32.6436 31.4334 32.7577 31.6653 32.9183 31.8639C33.0788 32.0625 33.2817 32.2226 33.5121 32.3326C33.7425 32.4427 33.9947 32.4998 34.25 32.4998C34.5053 32.4998 34.7575 32.4427 34.9879 32.3326C35.2183 32.2226 35.4212 32.0625 35.5817 31.8639C35.7423 31.6653 35.8564 31.4334 35.9157 31.185C35.975 30.9367 35.978 30.6782 35.9245 30.4285ZM25.6765 30.304L28 32.111V33.9485C28.1025 33.9745 28.2625 34 28.5 34C28.7375 34 28.8975 33.975 29 33.9485V32L30 31.25V37H19.5V34C19.5 32.1695 22.76 30.8635 25.6765 30.304ZM23.7375 34.134L27 33.5905V36H23V32.09C23.5476 31.8798 24.1069 31.7012 24.675 31.555L23.7375 34.134ZM20.5 36H22V32.5395L21.963 32.559C21.431 32.841 21.042 33.1285 20.797 33.399C20.557 33.665 20.5 33.8615 20.5 34V36ZM28.5 35C28.311 35 28.145 34.9875 28 34.9665V36H29V34.9665C28.855 34.9875 28.689 35 28.5 35ZM26.975 32.5805L25.721 31.6055L25.2625 32.866L26.975 32.5805Z" fill="white"/>
</svg>
