<svg width="57" height="56" viewBox="0 0 57 56" fill="none" xmlns="http://www.w3.org/2000/svg">
<rect x="0.5" width="56" height="56" rx="28" fill="#557C55"/>
<path d="M30 26.5C30 27.2956 29.6839 28.0587 29.1213 28.6213C28.5587 29.1839 27.7956 29.5 27 29.5C26.2044 29.5 25.4413 29.1839 24.8787 28.6213C24.3161 28.0587 24 27.2956 24 26.5C24 25.7044 24.3161 24.9413 24.8787 24.3787C25.4413 23.8161 26.2044 23.5 27 23.5C27.7956 23.5 28.5587 23.8161 29.1213 24.3787C29.6839 24.9413 30 25.7044 30 26.5ZM28.5 26.5C28.5 26.1022 28.342 25.7206 28.0607 25.4393C27.7794 25.158 27.3978 25 27 25C26.6022 25 26.2206 25.158 25.9393 25.4393C25.658 25.7206 25.5 26.1022 25.5 26.5C25.5 26.8978 25.658 27.2794 25.9393 27.5607C26.2206 27.842 26.6022 28 27 28C27.3978 28 27.7794 27.842 28.0607 27.5607C28.342 27.2794 28.5 26.8978 28.5 26.5ZM18 22.375C18 21.34 18.84 20.5 19.875 20.5H34.125C35.16 20.5 36 21.34 36 22.375V30.625C36 31.66 35.16 32.5 34.125 32.5H19.875C18.84 32.5 18 31.66 18 30.625V22.375ZM19.875 22C19.7755 22 19.6802 22.0395 19.6098 22.1098C19.5395 22.1802 19.5 22.2755 19.5 22.375V23.5H20.25C20.4489 23.5 20.6397 23.421 20.7803 23.2803C20.921 23.1397 21 22.9489 21 22.75V22H19.875ZM19.5 30.625C19.5 30.832 19.668 31 19.875 31H21V30.25C21 30.0511 20.921 29.8603 20.7803 29.7197C20.6397 29.579 20.4489 29.5 20.25 29.5H19.5V30.625ZM22.5 30.25V31H31.5V30.25C31.5 29.6533 31.7371 29.081 32.159 28.659C32.581 28.2371 33.1533 28 33.75 28H34.5V25H33.75C33.1533 25 32.581 24.7629 32.159 24.341C31.7371 23.919 31.5 23.3467 31.5 22.75V22H22.5V22.75C22.5 23.3467 22.2629 23.919 21.841 24.341C21.419 24.7629 20.8467 25 20.25 25H19.5V28H20.25C20.8467 28 21.419 28.2371 21.841 28.659C22.2629 29.081 22.5 29.6533 22.5 30.25ZM33 31H34.125C34.2245 31 34.3198 30.9605 34.3902 30.8902C34.4605 30.8198 34.5 30.7245 34.5 30.625V29.5H33.75C33.5511 29.5 33.3603 29.579 33.2197 29.7197C33.079 29.8603 33 30.0511 33 30.25V31ZM34.5 23.5V22.375C34.5 22.2755 34.4605 22.1802 34.3902 22.1098C34.3198 22.0395 34.2245 22 34.125 22H33V22.75C33 22.9489 33.079 23.1397 33.2197 23.2803C33.3603 23.421 33.5511 23.5 33.75 23.5H34.5ZM23.25 35.5C22.7748 35.5002 22.3118 35.3499 21.9273 35.0708C21.5428 34.7916 21.2565 34.3979 21.1095 33.946C21.318 33.982 21.531 34 21.75 34H34.125C35.0201 34 35.8785 33.6444 36.5115 33.0115C37.1444 32.3785 37.5 31.5201 37.5 30.625V23.6275C37.9389 23.7827 38.3188 24.0701 38.5875 24.4503C38.8561 24.8304 39.0002 25.2845 39 25.75V30.625C39 31.2652 38.8739 31.8991 38.6289 32.4906C38.3839 33.082 38.0248 33.6195 37.5721 34.0721C37.1195 34.5248 36.582 34.8839 35.9906 35.1289C35.3991 35.3739 34.7652 35.5 34.125 35.5H23.25Z" fill="white"/>
</svg>
