<svg width="57" height="56" viewBox="0 0 57 56" fill="none" xmlns="http://www.w3.org/2000/svg">
<rect x="0.5" width="56" height="56" rx="28" fill="#557C55"/>
<path d="M18.5 32V35M28.5 29V23M28.5 23C28.5 22.4696 28.7107 21.9609 29.0858 21.5858C29.4609 21.2107 29.9696 21 30.5 21H34.5C35.0304 21 35.5391 21.2107 35.9142 21.5858C36.2893 21.9609 36.5 22.4696 36.5 23V25M28.5 23C28.5 22.4696 28.2893 21.9609 27.9142 21.5858C27.5391 21.2107 27.0304 21 26.5 21H22.5C21.9696 21 21.4609 21.2107 21.0858 21.5858C20.7107 21.9609 20.5 22.4696 20.5 23V25" stroke="white" stroke-width="1.5" stroke-linecap="round" stroke-linejoin="round"/>
<path d="M38.5 32V35M36.5 25C35.9696 25 35.4609 25.2107 35.0858 25.5858C34.7107 25.9609 34.5 26.4696 34.5 27V29H22.5V27C22.5 26.4696 22.2893 25.9609 21.9142 25.5858C21.5391 25.2107 21.0304 25 20.5 25C19.9696 25 19.4609 25.2107 19.0858 25.5858C18.7107 25.9609 18.5 26.4696 18.5 27V33H38.5V27C38.5 26.4696 38.2893 25.9609 37.9142 25.5858C37.5391 25.2107 37.0304 25 36.5 25Z" stroke="white" stroke-width="1.5" stroke-linecap="round" stroke-linejoin="round"/>
</svg>
