<svg width="157" height="48" viewBox="0 0 157 48" fill="none" xmlns="http://www.w3.org/2000/svg">
<g clip-path="url(#clip0_2141_357)">
<path d="M13.2808 26.1911C13.2808 23.5847 11.3204 21.7528 8.91229 21.7528C6.50421 21.7528 4.5438 23.6155 4.5438 26.1911C4.5438 28.7358 6.50421 30.6295 8.91229 30.6295C11.3228 30.6271 13.2808 28.7976 13.2808 26.1911ZM13.3152 33.9488V31.9315C12.1271 33.3287 10.3586 34.1959 8.24078 34.1959C3.84031 34.1959 0.5 30.7815 0.5 26.1911C0.5 21.6292 3.96822 18.1555 8.33917 18.1555C10.3955 18.1555 12.1297 19.0251 13.3176 20.389V18.4335H17.268V33.9488H13.3152Z" fill="#DDDDDD" fill-opacity="0.866667"/>
<path d="M36.4562 30.5036C35.0738 30.5036 34.6901 30.0069 34.6901 28.7049V21.8169H37.2285V18.4335H34.6901V14.6485H30.6414V18.4335H25.4267V17.4902C25.4267 16.1858 25.9409 15.6892 27.3552 15.6892H28.2432V12.6788H26.295C22.9547 12.6788 21.3805 13.7338 21.3805 16.9604V18.4311H19.1323V21.8145H21.3805V33.9464H25.4293V21.8145H30.6438V29.4177C30.6438 32.5825 31.8959 33.9488 35.1722 33.9488H37.2605V30.5036H36.4562Z" fill="#DDDDDD" fill-opacity="0.866667"/>
<path d="M50.9762 24.794C50.6883 22.7767 48.9838 21.5673 46.9938 21.5673C45.0014 21.5673 43.3633 22.7459 42.9476 24.794H50.9762ZM42.9132 27.2151C43.2034 29.5103 44.9055 30.8148 47.0578 30.8148C48.7599 30.8148 50.0784 30.0378 50.8482 28.7975H54.9929C54.0287 32.0859 50.9762 34.1958 46.9619 34.1958C42.1113 34.1958 38.707 30.9074 38.707 26.2219C38.707 21.5365 42.3057 18.1531 47.0602 18.1531C51.8469 18.1531 55.3151 21.5674 55.3151 26.2219C55.3151 26.5641 55.2831 26.9039 55.2192 27.2151H42.9132Z" fill="#DDDDDD" fill-opacity="0.866667"/>
<path d="M81.0562 26.1911C81.0562 23.6773 79.0958 21.7528 76.6877 21.7528C74.2797 21.7528 72.3192 23.6155 72.3192 26.1911C72.3192 28.7358 74.2797 30.6295 76.6877 30.6295C79.0958 30.6271 81.0562 28.705 81.0562 26.1911ZM68.3345 18.4335H72.2847V20.4507C73.4728 19.0227 75.2389 18.1555 77.3592 18.1555C81.6957 18.1555 85.1 21.6007 85.1 26.1602C85.1 30.7221 81.6317 34.1982 77.2633 34.1982C75.2389 34.1982 73.5688 33.4213 72.4127 32.1193V40.3331H68.3345V18.4335Z" fill="#DDDDDD" fill-opacity="0.866667"/>
<path d="M99.3394 26.1911C99.3394 23.5847 97.3814 21.7528 94.9707 21.7528C92.5627 21.7528 90.6023 23.6155 90.6023 26.1911C90.6023 28.7358 92.5627 30.6295 94.9707 30.6295C97.3814 30.6271 99.3394 28.7976 99.3394 26.1911ZM99.374 33.9488V31.9315C98.1859 33.3287 96.4169 34.1959 94.299 34.1959C89.8988 34.1959 86.5586 30.7815 86.5586 26.1911C86.5586 21.6292 90.0268 18.1555 94.3953 18.1555C96.4515 18.1555 98.1859 19.0251 99.374 20.389V18.4335H103.325V33.9488H99.374Z" fill="#DDDDDD" fill-opacity="0.866667"/>
<path d="M61.2135 19.9541C61.2135 19.9541 62.2196 18.1555 64.6817 18.1555C65.7345 18.1555 66.4159 18.5048 66.4159 18.5048V22.4632C66.4159 22.4632 64.9301 21.5769 63.565 21.7551C62.1998 21.9334 61.3365 23.1451 61.3414 24.7655V33.9511H57.2632V18.4359H61.2135V19.9541Z" fill="#DDDDDD" fill-opacity="0.866667"/>
<path d="M121.774 18.4335L111.8 40.2831H107.594L111.51 31.8365L104.889 18.4335H109.656L113.53 27.3886L117.505 18.4335H121.774Z" fill="#DDDDDD" fill-opacity="0.866667"/>
<path d="M153.614 18.0818L143.726 12.5695C140.823 10.9515 137.195 12.9735 137.195 16.2119V16.7774C137.195 17.2883 137.477 17.7611 137.935 18.0153L139.802 19.056C140.35 19.3625 141.034 18.98 141.034 18.3693V16.9627C141.034 16.2595 141.822 15.8199 142.451 16.1715L151.016 20.9473C151.646 21.2989 151.646 22.1781 151.016 22.5274L142.451 27.3031C141.822 27.6548 141.034 27.2152 141.034 26.5119V25.7634C141.034 22.5249 137.406 20.5006 134.502 22.121L124.614 27.6333C121.711 29.2514 121.711 33.3001 124.614 34.9181L134.502 40.4305C137.404 42.0485 141.034 40.0265 141.034 36.7881V36.2226C141.034 35.7117 140.752 35.2413 140.294 34.9846L138.427 33.9416C137.879 33.6351 137.195 34.0176 137.195 34.6283V36.0349C137.195 36.7382 136.408 37.1777 135.778 36.8261L127.213 32.0503C126.584 31.6987 126.584 30.8196 127.213 30.4679L135.778 25.6921C136.408 25.3405 137.195 25.78 137.195 26.4833V27.2318C137.195 30.4703 140.823 32.4947 143.726 30.8742L153.614 25.3619C156.516 23.7486 156.516 19.6999 153.614 18.0818Z" fill="#DDDDDD" fill-opacity="0.866667"/>
</g>
<defs>
<clipPath id="clip0_2141_357">
<rect width="156" height="48" fill="white" transform="translate(0.5)"/>
</clipPath>
</defs>
</svg>
