<svg width="166" height="48" viewBox="0 0 166 48" fill="none" xmlns="http://www.w3.org/2000/svg">
<g clip-path="url(#clip0_2141_368)">
<path d="M64.9555 14.8507C64.9555 14.1883 65.2186 13.553 65.687 13.0846C66.1554 12.6162 66.7908 12.353 67.4532 12.353C68.1156 12.353 68.7509 12.6162 69.2193 13.0846C69.6877 13.553 69.9508 14.1883 69.9508 14.8507C69.9267 15.497 69.653 16.1088 69.1872 16.5575C68.7215 17.0062 68.0999 17.2569 67.4532 17.2569C66.8065 17.2569 66.1848 17.0062 65.7191 16.5575C65.2533 16.1088 64.9796 15.497 64.9555 14.8507Z" fill="#DDDDDD"/>
<path d="M23.9651 30.4245C21.8153 30.4245 20.3195 28.7165 20.3195 26.2745C20.3195 23.8342 21.8153 22.128 23.9668 22.128C26.1288 22.128 27.6402 23.8342 27.6402 26.2745C27.6402 28.7548 26.1618 30.4245 23.9651 30.4245ZM23.9651 18.4806C19.415 18.4806 16.1121 21.7592 16.1121 26.2745C16.1121 30.7915 19.4168 34.0684 23.9651 34.0684C28.5343 34.0684 31.8493 30.7915 31.8493 26.2762C31.8493 21.7592 28.5342 18.4806 23.9668 18.4806H23.9651ZM60.1184 26.6659C59.9601 26.3596 59.7599 26.0768 59.5236 25.8258L59.3844 25.6814L59.5306 25.5423C59.7393 25.3214 59.9532 25.0605 60.1584 24.7578L64.1762 18.7885H59.2993L56.2815 23.4586C56.111 23.709 55.7667 23.8342 55.2502 23.8342H54.5631V15.0055C54.5631 13.2401 53.4621 13.0001 52.2742 13.0001H50.2391L50.2443 33.8388H54.5648V27.5877H54.9701C55.4623 27.5877 55.7962 27.6451 55.951 27.9129L58.3339 32.4108C59 33.6318 59.6627 33.8388 60.9115 33.8388H64.2215L61.7552 29.7618L60.1202 26.6659H60.1184ZM81.0911 18.4458C78.8927 18.4458 77.4907 19.4233 76.7045 20.2495L76.4437 20.5139L76.3498 20.1539C76.1202 19.2685 75.341 18.7833 74.1704 18.7833H72.2345L72.2467 33.8336H76.5376V26.8972C76.5376 26.2188 76.6245 25.631 76.8054 25.0935C77.282 23.4673 78.6143 22.4567 80.2788 22.4567C81.6181 22.4567 82.1417 23.1646 82.1417 24.9909V31.5464C82.1417 33.1048 82.8634 33.8336 84.4236 33.8336H86.4656L86.4587 24.2604C86.4587 20.4582 84.6028 18.4476 81.0911 18.4476V18.4458ZM67.5053 18.7885H65.472L65.4859 30.4263V33.8388H67.6549L67.7314 33.8423L68.7438 33.8388H69.7491V33.8336H69.756L69.7647 21.0757C69.7647 19.5364 69.029 18.7902 67.5071 18.7902L67.5053 18.7885ZM40.8173 30.4245C38.6675 30.4245 37.1699 28.7165 37.1699 26.2745C37.1699 23.8342 38.6675 22.128 40.8191 22.128C42.9758 22.128 44.4925 23.8342 44.4925 26.2745C44.4925 28.7548 43.0141 30.4245 40.8191 30.4245H40.8173ZM40.8173 18.4806C36.2637 18.4806 32.959 21.7592 32.959 26.2745C32.959 30.7915 36.2638 34.0684 40.8191 34.0684C45.3813 34.0684 48.7033 30.7915 48.7033 26.2762C48.7033 21.7592 45.3813 18.4806 40.8191 18.4806" fill="#DDDDDD"/>
<path d="M95.5048 29.7618C93.1585 29.7618 92.3236 27.7163 92.3236 25.7979C92.3236 24.9526 92.5375 22.1992 95.2804 22.1992C96.6423 22.1992 98.4563 22.5888 98.4563 25.9387C98.4563 29.0991 96.851 29.7618 95.5048 29.7618ZM100.684 18.7484C99.8704 18.7484 99.2443 19.0737 98.9295 19.6668L98.8112 19.8964L98.6129 19.7224C97.9207 19.1241 96.6788 18.4127 94.6629 18.4127C90.6503 18.4127 87.9492 21.427 87.9492 25.9092C87.9492 30.3897 90.7443 33.5204 94.743 33.5204C96.1084 33.5204 97.1884 33.2004 98.0441 32.5534L98.3746 32.3046V32.7221C98.3746 34.7327 97.0754 35.8424 94.7186 35.8424C93.5724 35.8424 92.5306 35.5641 91.8314 35.3102C90.9234 35.0354 90.3877 35.2632 90.0207 36.1764L89.6798 37.0182L89.198 38.2496L89.4954 38.4079C91.0052 39.208 92.9689 39.6863 94.743 39.6863C98.3956 39.6863 102.664 37.8165 102.664 32.5534L102.679 18.7484H100.684Z" fill="#DDDDDD"/>
<path d="M7.98774 30.2522L4.4952 30.2488V26.0744C4.4952 25.1804 4.84133 24.7177 5.60489 24.6099H7.98774C9.68705 24.6099 10.7863 25.6813 10.788 27.4154C10.7863 29.1965 9.71488 30.2505 7.98774 30.2505V30.2522ZM4.4952 17.8892C4.4952 16.9274 4.90222 16.4699 5.79449 16.4108H7.58253C9.11487 16.4108 10.0332 17.3274 10.0332 18.8632C10.0332 20.032 9.40357 21.3974 7.63816 21.3974H4.4952V17.8892ZM12.4474 23.1558L11.816 22.801L12.3673 22.3297C13.0092 21.7783 14.0824 20.5382 14.0824 18.3988C14.0824 15.1219 11.5429 13.0069 7.61035 13.0069H2.61151C2.04904 13.0274 1.51605 13.2636 1.12294 13.6664C0.729838 14.0692 0.506774 14.6078 0.5 15.1706V33.7639H7.69899C12.0699 33.7639 14.8911 31.3845 14.8911 27.6989C14.8911 25.7144 13.9797 24.0185 12.4474 23.1558Z" fill="#DDDDDD"/>
<path d="M104.363 31.5081C104.363 30.1218 105.48 29.0017 106.856 29.0017C107.52 29.0017 108.157 29.2656 108.627 29.7353C109.096 30.205 109.36 30.8421 109.36 31.5063C109.36 32.1706 109.096 32.8076 108.627 33.2774C108.157 33.7471 107.52 34.0109 106.856 34.0109C105.482 34.0109 104.363 32.8891 104.363 31.5063" fill="#DDDDDD"/>
<path d="M132.784 30.4243C130.634 30.4243 129.135 28.7163 129.135 26.2743C129.135 23.8341 130.634 22.1278 132.784 22.1278C134.944 22.1278 136.459 23.8341 136.459 26.2743C136.459 28.7546 134.98 30.4243 132.784 30.4243ZM132.784 18.4805C128.23 18.4805 124.927 21.7591 124.927 26.2743C124.927 30.7913 128.23 34.0682 132.784 34.0682C137.348 34.0682 140.668 30.7913 140.668 26.2761C140.668 21.7591 137.346 18.4805 132.784 18.4805Z" fill="#DDDDDD"/>
<path d="M159.834 18.4962C158.948 18.4994 158.074 18.7016 157.277 19.0879C156.48 19.4741 155.779 20.0345 155.228 20.7277L154.918 21.1208L154.675 20.6807C153.878 19.2319 152.511 18.4962 150.61 18.4962C148.615 18.4962 147.277 19.6093 146.657 20.2703L146.25 20.7103L146.093 20.1311C145.867 19.2962 145.124 18.8388 144.001 18.8388H142.197L142.179 33.8317H146.276V27.2136C146.276 26.6327 146.349 26.0604 146.493 25.4604C146.884 23.8602 147.959 22.14 149.766 22.3122C150.88 22.4201 151.426 23.281 151.426 24.9438V33.8317H155.551V27.2136C155.551 26.4883 155.619 25.9457 155.783 25.403C156.113 23.8759 157.237 22.3105 158.98 22.3105C160.242 22.3105 160.708 23.0236 160.708 24.9438V31.6402C160.708 33.1534 161.383 33.8317 162.898 33.8317H164.825L164.829 24.2603C164.829 20.4355 163.145 18.4962 159.834 18.4962ZM122.553 28.6259C122.541 28.6416 120.779 30.4992 118.457 30.4992C116.342 30.4992 114.206 29.2016 114.206 26.3057C114.206 23.8046 115.862 22.0565 118.234 22.0565C119.003 22.0565 119.88 22.3314 120.017 22.7957L120.036 22.874C120.124 23.1937 120.315 23.4756 120.579 23.6759C120.843 23.8762 121.166 23.9838 121.497 23.982L123.741 23.9854V22.0235C123.741 19.4354 120.448 18.4962 118.234 18.4962C113.496 18.4962 110.06 21.7939 110.06 26.337C110.06 30.8766 113.458 34.1709 118.147 34.1709C122.214 34.1709 124.426 31.4975 124.447 31.4715L124.565 31.3254L122.788 28.3772L122.553 28.6259Z" fill="#DDDDDD"/>
</g>
<defs>
<clipPath id="clip0_2141_368">
<rect width="165" height="48" fill="white" transform="translate(0.5)"/>
</clipPath>
</defs>
</svg>
