<svg width="169" height="48" viewBox="0 0 169 48" fill="none" xmlns="http://www.w3.org/2000/svg">
<rect y="19.2" width="9.59998" height="9.59999" fill="#DDDDDD"/>
<rect x="28.7998" y="28.8" width="9.6" height="9.59999" transform="rotate(180 28.7998 28.8)" fill="#DDDDDD"/>
<path d="M9.59961 19.2L19.1996 9.59998V19.2L9.59961 28.7999V19.2Z" fill="#DDDDDD"/>
<path d="M19.2002 28.8L9.60021 38.4L9.60021 28.8L19.2002 19.2L19.2002 28.8Z" fill="#DDDDDD"/>
<path d="M0 19.2L19.2 0V9.59999L9.59998 19.2H0Z" fill="#DDDDDD"/>
<path d="M28.7998 28.8L9.59983 48L9.59983 38.4L19.1998 28.8L28.7998 28.8Z" fill="#DDDDDD"/>
<path d="M49.7085 34.28C48.1965 34.28 46.7311 34.0653 45.3125 33.636C43.9125 33.2067 42.8018 32.6373 41.9805 31.928L43.2405 29.1C44.0431 29.7347 45.0231 30.2573 46.1805 30.668C47.3565 31.06 48.5325 31.256 49.7085 31.256C51.1645 31.256 52.2471 31.0227 52.9565 30.556C53.6845 30.0893 54.0485 29.4733 54.0485 28.708C54.0485 28.148 53.8431 27.6907 53.4325 27.336C53.0405 26.9627 52.5365 26.6733 51.9205 26.468C51.3045 26.2627 50.4645 26.0293 49.4005 25.768C47.9071 25.4133 46.6938 25.0587 45.7605 24.704C44.8458 24.3493 44.0525 23.7987 43.3805 23.052C42.7271 22.2867 42.4005 21.26 42.4005 19.972C42.4005 18.8893 42.6898 17.9093 43.2685 17.032C43.8658 16.136 44.7525 15.4267 45.9285 14.904C47.1231 14.3813 48.5791 14.12 50.2965 14.12C51.4911 14.12 52.6671 14.2693 53.8245 14.568C54.9818 14.8667 55.9805 15.296 56.8205 15.856L55.6725 18.684C54.8138 18.18 53.9178 17.7973 52.9845 17.536C52.0511 17.2747 51.1458 17.144 50.2685 17.144C48.8311 17.144 47.7578 17.3867 47.0485 17.872C46.3578 18.3573 46.0125 19.0013 46.0125 19.804C46.0125 20.364 46.2085 20.8213 46.6005 21.176C47.0111 21.5307 47.5245 21.8107 48.1405 22.016C48.7565 22.2213 49.5965 22.4547 50.6605 22.716C52.1165 23.052 53.3111 23.4067 54.2445 23.78C55.1778 24.1347 55.9711 24.6853 56.6245 25.432C57.2965 26.1787 57.6325 27.1867 57.6325 28.456C57.6325 29.5387 57.3338 30.5187 56.7365 31.396C56.1578 32.2733 55.2711 32.9733 54.0765 33.496C52.8818 34.0187 51.4258 34.28 49.7085 34.28Z" fill="#DDDDDD"/>
<path d="M60.9058 19.048H64.4058V34H60.9058V19.048ZM62.6698 16.584C62.0352 16.584 61.5032 16.388 61.0738 15.996C60.6445 15.5853 60.4298 15.0813 60.4298 14.484C60.4298 13.8867 60.6445 13.392 61.0738 13C61.5032 12.5893 62.0352 12.384 62.6698 12.384C63.3045 12.384 63.8365 12.58 64.2658 12.972C64.6952 13.3453 64.9098 13.8213 64.9098 14.4C64.9098 15.016 64.6952 15.5387 64.2658 15.968C63.8552 16.3787 63.3232 16.584 62.6698 16.584Z" fill="#DDDDDD"/>
<path d="M73.6196 34.196C72.4062 34.196 71.2209 34.0373 70.0636 33.72C68.9062 33.4027 67.9823 33.0013 67.2916 32.516L68.6356 29.856C69.3076 30.304 70.1102 30.668 71.0436 30.948C71.9956 31.2093 72.9289 31.34 73.8436 31.34C75.9342 31.34 76.9796 30.7893 76.9796 29.688C76.9796 29.1653 76.7089 28.8013 76.1676 28.596C75.6449 28.3907 74.7956 28.1947 73.6196 28.008C72.3876 27.8213 71.3796 27.6067 70.5956 27.364C69.8302 27.1213 69.1582 26.7013 68.5796 26.104C68.0196 25.488 67.7396 24.6387 67.7396 23.556C67.7396 22.1373 68.3276 21.008 69.5036 20.168C70.6982 19.3093 72.3036 18.88 74.3196 18.88C75.3462 18.88 76.3729 19.0013 77.3996 19.244C78.4262 19.468 79.2662 19.776 79.9196 20.168L78.5756 22.828C77.3062 22.0813 75.8782 21.708 74.2916 21.708C73.2649 21.708 72.4809 21.8667 71.9396 22.184C71.4169 22.4827 71.1556 22.884 71.1556 23.388C71.1556 23.948 71.4356 24.3493 71.9956 24.592C72.5742 24.816 73.4609 25.0307 74.6556 25.236C75.8502 25.4227 76.8302 25.6373 77.5956 25.88C78.3609 26.1227 79.0142 26.5333 79.5556 27.112C80.1156 27.6907 80.3956 28.512 80.3956 29.576C80.3956 30.976 79.7889 32.096 78.5756 32.936C77.3622 33.776 75.7102 34.196 73.6196 34.196Z" fill="#DDDDDD"/>
<path d="M97.1363 19.048L90.1363 35.204C89.483 36.828 88.6896 37.9667 87.7563 38.62C86.823 39.292 85.6936 39.628 84.3683 39.628C83.6216 39.628 82.8843 39.5067 82.1563 39.264C81.4283 39.0213 80.831 38.6853 80.3643 38.256L81.7643 35.68C82.1003 35.9973 82.4923 36.2493 82.9403 36.436C83.407 36.6227 83.8736 36.716 84.3403 36.716C84.9563 36.716 85.4603 36.5573 85.8523 36.24C86.263 35.9227 86.6363 35.3907 86.9723 34.644L87.2243 34.056L80.7003 19.048H84.3403L89.0443 30.108L93.7763 19.048H97.1363Z" fill="#DDDDDD"/>
<path d="M107.612 18.88C109.068 18.88 110.365 19.1973 111.504 19.832C112.661 20.4667 113.566 21.3627 114.22 22.52C114.873 23.6773 115.2 25.012 115.2 26.524C115.2 28.036 114.873 29.38 114.22 30.556C113.566 31.7133 112.661 32.6093 111.504 33.244C110.365 33.8787 109.068 34.196 107.612 34.196C105.596 34.196 104 33.524 102.824 32.18V39.432H99.3238V19.048H102.656V21.008C103.234 20.2987 103.944 19.7667 104.784 19.412C105.642 19.0573 106.585 18.88 107.612 18.88ZM107.22 31.2C108.508 31.2 109.562 30.7707 110.384 29.912C111.224 29.0533 111.644 27.924 111.644 26.524C111.644 25.124 111.224 23.9947 110.384 23.136C109.562 22.2773 108.508 21.848 107.22 21.848C106.38 21.848 105.624 22.044 104.952 22.436C104.28 22.8093 103.748 23.3507 103.356 24.06C102.964 24.7693 102.768 25.5907 102.768 26.524C102.768 27.4573 102.964 28.2787 103.356 28.988C103.748 29.6973 104.28 30.248 104.952 30.64C105.624 31.0133 106.38 31.2 107.22 31.2Z" fill="#DDDDDD"/>
<path d="M127.003 18.88C128.888 18.88 130.4 19.4307 131.539 20.532C132.678 21.6333 133.247 23.2667 133.247 25.432V34H129.747V25.88C129.747 24.5733 129.439 23.5933 128.823 22.94C128.207 22.268 127.33 21.932 126.191 21.932C124.903 21.932 123.886 22.324 123.139 23.108C122.392 23.8733 122.019 24.984 122.019 26.44V34H118.519V13.224H122.019V20.784C122.598 20.168 123.307 19.7013 124.147 19.384C125.006 19.048 125.958 18.88 127.003 18.88Z" fill="#DDDDDD"/>
<path d="M152.163 19.048V34H148.831V32.096C148.271 32.768 147.571 33.2907 146.731 33.664C145.891 34.0187 144.986 34.196 144.015 34.196C142.018 34.196 140.44 33.6453 139.283 32.544C138.144 31.424 137.575 29.772 137.575 27.588V19.048H141.075V27.112C141.075 28.456 141.374 29.464 141.971 30.136C142.587 30.7893 143.455 31.116 144.575 31.116C145.826 31.116 146.815 30.7333 147.543 29.968C148.29 29.184 148.663 28.064 148.663 26.608V19.048H152.163Z" fill="#DDDDDD"/>
<path d="M161.366 34.196C160.152 34.196 158.967 34.0373 157.81 33.72C156.652 33.4027 155.728 33.0013 155.038 32.516L156.382 29.856C157.054 30.304 157.856 30.668 158.79 30.948C159.742 31.2093 160.675 31.34 161.59 31.34C163.68 31.34 164.726 30.7893 164.726 29.688C164.726 29.1653 164.455 28.8013 163.914 28.596C163.391 28.3907 162.542 28.1947 161.366 28.008C160.134 27.8213 159.126 27.6067 158.342 27.364C157.576 27.1213 156.904 26.7013 156.326 26.104C155.766 25.488 155.486 24.6387 155.486 23.556C155.486 22.1373 156.074 21.008 157.25 20.168C158.444 19.3093 160.05 18.88 162.066 18.88C163.092 18.88 164.119 19.0013 165.146 19.244C166.172 19.468 167.012 19.776 167.666 20.168L166.322 22.828C165.052 22.0813 163.624 21.708 162.038 21.708C161.011 21.708 160.227 21.8667 159.686 22.184C159.163 22.4827 158.902 22.884 158.902 23.388C158.902 23.948 159.182 24.3493 159.742 24.592C160.32 24.816 161.207 25.0307 162.402 25.236C163.596 25.4227 164.576 25.6373 165.342 25.88C166.107 26.1227 166.76 26.5333 167.302 27.112C167.862 27.6907 168.142 28.512 168.142 29.576C168.142 30.976 167.535 32.096 166.322 32.936C165.108 33.776 163.456 34.196 161.366 34.196Z" fill="#DDDDDD"/>
</svg>
