<svg width="214" height="24" viewBox="0 0 214 24" fill="none" xmlns="http://www.w3.org/2000/svg">
<path d="M0.524 19.5L6.356 2.004H11.636L17.468 19.5H13.58L12.404 15.9H5.588L4.412 19.5H0.524ZM6.452 13.044H11.54L10.052 8.58L9.068 5.388H8.924L7.94 8.58L6.452 13.044ZM20.5882 19.5V2.004H29.2282C33.3082 2.004 35.3242 3.804 35.3242 7.02C35.3242 9.108 34.1722 10.74 32.3002 11.196V11.364C34.0522 11.7 34.8922 12.78 34.8922 14.748V17.484C34.8922 18.132 34.8922 18.828 35.2042 19.5H31.4362C31.2202 19.068 31.1482 18.348 31.1482 17.484V15.396C31.1482 13.908 30.5962 13.068 28.4842 13.068H24.3322V19.5H20.5882ZM24.3322 10.092H28.6762C30.7162 10.092 31.5082 9.012 31.5082 7.524C31.5082 5.772 30.3562 5.1 28.6762 5.1H24.3322V10.092ZM46.9771 19.716C41.7211 19.716 38.1931 16.428 38.1931 10.74C38.1931 5.076 41.7211 1.788 46.9771 1.788C51.4651 1.788 54.6571 4.284 55.1371 8.028H51.3451C50.9131 6.228 49.2811 4.98 46.9771 4.98C43.9771 4.98 42.0571 6.9 42.0571 10.74C42.0571 14.628 43.9771 16.524 46.9771 16.524C49.2091 16.524 50.9611 15.3 51.3451 13.452H55.1371C54.7051 17.22 51.3931 19.716 46.9771 19.716ZM59.0585 19.5V2.004H62.8025V9.036H71.0345V2.004H74.7785V19.5H71.0345V12.228H62.8025V19.5H59.0585ZM79.7351 19.5V2.004H83.4791V19.5H79.7351Z" fill="#171717"/>
<path d="M104.5 5V21H110.5V19.5H108.5V18H110.5V16.5H106.5V15H110.5V13.5H108.5V12H110.5V10.5H106.5V9H110.5V5H112V9H113.5V7H115V9H116.5V5H118V9H119.5V7H121V9H122.5V3H106.5C105.97 3 105.461 3.21071 105.086 3.58579C104.711 3.96086 104.5 4.46957 104.5 5ZM107.5 7C107.235 7 106.98 6.89464 106.793 6.70711C106.605 6.51957 106.5 6.26522 106.5 6C106.5 5.73478 106.605 5.48043 106.793 5.29289C106.98 5.10536 107.235 5 107.5 5C107.765 5 108.02 5.10536 108.207 5.29289C108.395 5.48043 108.5 5.73478 108.5 6C108.5 6.26522 108.395 6.51957 108.207 6.70711C108.02 6.89464 107.765 7 107.5 7Z" fill="#171717"/>
<path d="M146.876 19.5V5.244H141.716V2.004H155.876V5.244H150.596V19.5H146.876ZM159.174 19.5V2.004H171.894V5.196H162.918V9.108H170.718V12.108H162.918V16.308H171.942V19.5H159.174ZM183.594 19.716C178.338 19.716 174.81 16.428 174.81 10.74C174.81 5.076 178.338 1.788 183.594 1.788C188.082 1.788 191.274 4.284 191.754 8.028H187.962C187.53 6.228 185.898 4.98 183.594 4.98C180.594 4.98 178.674 6.9 178.674 10.74C178.674 14.628 180.594 16.524 183.594 16.524C185.826 16.524 187.578 15.3 187.962 13.452H191.754C191.322 17.22 188.01 19.716 183.594 19.716ZM195.676 19.5V2.004H199.42V9.036H207.652V2.004H211.396V19.5H207.652V12.228H199.42V19.5H195.676Z" fill="#171717"/>
</svg>
