<svg width="141" height="17" viewBox="0 0 141 17" fill="none" xmlns="http://www.w3.org/2000/svg">
<path d="M0.514 12.5L3.916 2.294H6.996L10.398 12.5H8.13L7.444 10.4H3.468L2.782 12.5H0.514ZM3.972 8.734H6.94L6.072 6.13L5.498 4.268H5.414L4.84 6.13L3.972 8.734ZM12.2181 12.5V2.294H17.2581C19.6381 2.294 20.8141 3.344 20.8141 5.22C20.8141 6.438 20.1421 7.39 19.0501 7.656V7.754C20.0721 7.95 20.5621 8.58 20.5621 9.728V11.324C20.5621 11.702 20.5621 12.108 20.7441 12.5H18.5461C18.4201 12.248 18.3781 11.828 18.3781 11.324V10.106C18.3781 9.238 18.0561 8.748 16.8241 8.748H14.4021V12.5H12.2181ZM14.4021 7.012H16.9361C18.1261 7.012 18.5881 6.382 18.5881 5.514C18.5881 4.492 17.9161 4.1 16.9361 4.1H14.4021V7.012ZM27.6117 12.626C24.5457 12.626 22.4877 10.708 22.4877 7.39C22.4877 4.086 24.5457 2.168 27.6117 2.168C30.2297 2.168 32.0917 3.624 32.3717 5.808H30.1597C29.9077 4.758 28.9557 4.03 27.6117 4.03C25.8617 4.03 24.7417 5.15 24.7417 7.39C24.7417 9.658 25.8617 10.764 27.6117 10.764C28.9137 10.764 29.9357 10.05 30.1597 8.972H32.3717C32.1197 11.17 30.1877 12.626 27.6117 12.626ZM34.6591 12.5V2.294H36.8431V6.396H41.6451V2.294H43.8291V12.5H41.6451V8.258H36.8431V12.5H34.6591ZM46.7205 12.5V2.294H48.9045V12.5H46.7205Z" fill="#171717"/>
<path d="M68.5 3.83333V14.5H72.5V13.5H71.1667V12.5H72.5V11.5H69.8333V10.5H72.5V9.5H71.1667V8.5H72.5V7.5H69.8333V6.5H72.5V3.83333H73.5V6.5H74.5V5.16667H75.5V6.5H76.5V3.83333H77.5V6.5H78.5V5.16667H79.5V6.5H80.5V2.5H69.8333C69.4797 2.5 69.1406 2.64048 68.8905 2.89052C68.6405 3.14057 68.5 3.47971 68.5 3.83333ZM70.5 5.16667C70.3232 5.16667 70.1536 5.09643 70.0286 4.9714C69.9036 4.84638 69.8333 4.67681 69.8333 4.5C69.8333 4.32319 69.9036 4.15362 70.0286 4.0286C70.1536 3.90357 70.3232 3.83333 70.5 3.83333C70.6768 3.83333 70.8464 3.90357 70.9714 4.0286C71.0964 4.15362 71.1667 4.32319 71.1667 4.5C71.1667 4.67681 71.0964 4.84638 70.9714 4.9714C70.8464 5.09643 70.6768 5.16667 70.5 5.16667Z" fill="#171717"/>
<path d="M101.636 12.5V4.184H98.626V2.294H106.886V4.184H103.806V12.5H101.636ZM108.81 12.5V2.294H116.23V4.156H110.994V6.438H115.544V8.188H110.994V10.638H116.258V12.5H108.81ZM123.055 12.626C119.989 12.626 117.931 10.708 117.931 7.39C117.931 4.086 119.989 2.168 123.055 2.168C125.673 2.168 127.535 3.624 127.815 5.808H125.603C125.351 4.758 124.399 4.03 123.055 4.03C121.305 4.03 120.185 5.15 120.185 7.39C120.185 9.658 121.305 10.764 123.055 10.764C124.357 10.764 125.379 10.05 125.603 8.972H127.815C127.563 11.17 125.631 12.626 123.055 12.626ZM130.102 12.5V2.294H132.286V6.396H137.088V2.294H139.272V12.5H137.088V8.258H132.286V12.5H130.102Z" fill="#171717"/>
</svg>
