<svg width="25" height="24" viewBox="0 0 25 24" fill="none" xmlns="http://www.w3.org/2000/svg">
<path fill-rule="evenodd" clip-rule="evenodd" d="M13.97 5.46983C14.1106 5.32938 14.3012 5.25049 14.5 5.25049C14.6988 5.25049 14.8894 5.32938 15.03 5.46983L21.03 11.4698C21.1705 11.6105 21.2493 11.8011 21.2493 11.9998C21.2493 12.1986 21.1705 12.3892 21.03 12.5298L15.03 18.5298C14.9613 18.6035 14.8785 18.6626 14.7865 18.7036C14.6945 18.7446 14.5952 18.7666 14.4945 18.7684C14.3938 18.7702 14.2938 18.7517 14.2004 18.714C14.107 18.6762 14.0222 18.6201 13.951 18.5489C13.8797 18.4776 13.8236 18.3928 13.7859 18.2994C13.7482 18.206 13.7296 18.106 13.7314 18.0053C13.7332 17.9046 13.7552 17.8053 13.7962 17.7133C13.8372 17.6213 13.8963 17.5385 13.97 17.4698L18.69 12.7498H4.5C4.30109 12.7498 4.11032 12.6708 3.96967 12.5302C3.82902 12.3895 3.75 12.1987 3.75 11.9998C3.75 11.8009 3.82902 11.6102 3.96967 11.4695C4.11032 11.3288 4.30109 11.2498 4.5 11.2498H18.69L13.97 6.52983C13.8295 6.3892 13.7507 6.19858 13.7507 5.99983C13.7507 5.80108 13.8295 5.61045 13.97 5.46983Z" fill="#171717"/>
</svg>
